<svg xmlns="http://www.w3.org/2000/svg" preserveAspectRatio="none" style="" viewBox="0 0 400 500" height="100" width="100"><path text="Dev" fill="#333747" space="preserve" text-anchor="start" offset="0" font-scale="contain" font-family="Ubuntu" transform="matrix(1.2622667597267283, 0, 0, 1.2622667597267283, 199.10068920867826, 247.68523444843834)" data-fl-textpath="" font-weight="700" font-style="normal" d="M 11.33-27.12L 11.33-6.1Q 11.86-6.05  12.55-6.02Q 13.25-6  14.21-6L 14.21-6Q 19.82-6  22.54-8.83Q 25.25-11.66  25.25-16.66L 25.25-16.66Q 25.25-21.89  22.66-24.58Q 20.06-27.26  14.45-27.26L 14.45-27.26Q 13.68-27.26  12.86-27.24Q 12.05-27.22  11.33-27.12L 11.33-27.12ZM 32.98-16.66L 32.98-16.66Q 32.98-12.34  31.63-9.12Q 30.29-5.9  27.82-3.79Q 25.34-1.68  21.79-0.62Q 18.24 0.43  13.82 0.43L 13.82 0.43Q 11.81 0.43  9.12 0.26Q 6.43 0.1  3.84-0.43L 3.84-0.43L 3.84-32.83Q 6.43-33.31  9.24-33.48Q 12.05-33.65  14.06-33.65L 14.06-33.65Q 18.34-33.65  21.82-32.69Q 25.3-31.73  27.79-29.66Q 30.29-27.6  31.63-24.38Q 32.98-21.17  32.98-16.66ZM 37.536-12.43L 37.536-12.43Q 37.536-15.79  38.565999999999995-18.31Q 39.596-20.83  41.275999999999996-22.51Q 42.955999999999996-24.19  45.146-25.06Q 47.32599999999999-25.92  49.635999999999996-25.92L 49.635999999999996-25.92Q 55.006-25.92  58.126-22.63Q 61.245999999999995-19.34  61.245999999999995-12.96L 61.245999999999995-12.96Q 61.245999999999995-12.34  61.196-11.59Q 61.156-10.85  61.105999999999995-10.27L 61.105999999999995-10.27L 44.876-10.27Q 45.116-8.06  46.946-6.77Q 48.766-5.47  51.836-5.47L 51.836-5.47Q 53.806-5.47  55.705999999999996-5.83Q 57.596-6.19  58.796-6.72L 58.796-6.72L 59.756-0.91Q 59.18599999999999-0.62  58.226-0.34Q 57.266-0.05  56.086 0.17Q 54.916 0.38  53.566 0.53Q 52.226 0.67  50.876 0.67L 50.876 0.67Q 47.476 0.67  44.955999999999996-0.34Q 42.436-1.34  40.775999999999996-3.1Q 39.116-4.85  38.326-7.25Q 37.536-9.65  37.536-12.43ZM 44.876-15.17L 54.336-15.17Q 54.286-16.08  54.025999999999996-16.94Q 53.756-17.81  53.205999999999996-18.48Q 52.656-19.15  51.816-19.58Q 50.976-20.02  49.726-20.02L 49.726-20.02Q 48.525999999999996-20.02  47.666-19.61Q 46.796-19.2  46.226-18.53Q 45.646-17.86  45.336-16.97Q 45.025999999999996-16.08  44.876-15.17L 44.876-15.17ZM 79.588 0L 73.628 0Q 71.188-4.8  68.668-11.23Q 66.148-17.66  63.888-25.25L 63.888-25.25L 71.468-25.25Q 71.94800000000001-23.38  72.598-21.19Q 73.248-19.01  73.94800000000001-16.78Q 74.638-14.54  75.338-12.43Q 76.028-10.32  76.708-8.59L 76.708-8.59Q 77.328-10.32  78.048-12.43Q 78.768-14.54  79.468-16.78Q 80.158-19.01  80.80799999999999-21.19Q 81.458-23.38  81.938-25.25L 81.938-25.25L 89.328-25.25Q 87.068-17.66  84.548-11.23Q 82.028-4.8  79.588 0L 79.588 0Z" letter-spacing="0" font-size="80"/><g transform="matrix(0.8196180361245584, 0, 0, 0.8196180361245584, 8.65833431742326, 73.5079979743603)"><g transform="matrix(1.9531588554382324, 0, 0, 1.9531588554382324, 27.580556869506836, 124.99699401855469)" fill="#333747"><path d="M53.6 15.2c-1-4.4 2.8-8.2 7.2-7.2c2.2 0.5 4 2.3 4.5 4.5c1 4.4-2.8 8.2-7.2 7.2C55.9 19.2 54.1 17.4 53.6 15.2z M77.2 71.3  c-3.4-0.5-6.2 2.4-5.7 5.7c0.3 2.1 2 3.8 4.1 4.1c3.4 0.5 6.2-2.4 5.7-5.7C81.1 73.4 79.3 71.6 77.2 71.3z M50.2 42.5  c-4.1 0-7.5 3.4-7.5 7.5s3.4 7.5 7.5 7.5s7.5-3.4 7.5-7.5S54.3 42.5 50.2 42.5z M81 50c7.4 8.3 10.5 16.5 7.3 22  c-1 1.8-2.7 3.2-4.8 4.2c0-1.1-0.3-2.1-0.7-3c1.3-0.7 2.3-1.6 3-2.7c2.5-4.3-0.4-11.1-6.7-18.3c-2.9 3-6.3 5.9-10 8.6  c-0.5 4.7-1.3 9.1-2.4 13c1.1 0.2 2.2 0.4 3.2 0.6c-0.2 0.6-0.3 1.2-0.3 1.9c0 0.4 0 0.8 0.1 1.1c-1.3-0.2-2.6-0.4-3.9-0.7  C62.1 87.3 56.6 94 50.2 94c-6.4 0-11.9-6.7-15.4-17.3c-1.4 0.3-2.8 0.5-4.1 0.7c-1.8 0.2-3.5 0.3-5.1 0.3c-6.6 0-11.3-2-13.5-5.7  c-1.2-2.1-1.5-4.6-1-7.3c0.8 0.6 1.8 1 2.9 1c-0.2 1.8 0 3.5 0.8 4.8c2 3.5 7.7 4.9 15.6 3.9c1.2-0.2 2.4-0.4 3.6-0.6  c-1.1-3.9-1.9-8.3-2.4-13c-3.8-2.7-7.1-5.6-10.1-8.6c-0.8 0.9-1.6 1.9-2.3 2.8c-0.1 0.2-0.2 0.3-0.4 0.5c-0.6-0.6-1.3-1-2-1.3  c-0.1-0.3-0.1-0.4-0.2-0.7c0.9-1.2 1.8-2.3 2.8-3.5c-1-1.1-1.9-2.1-2.7-3.2C11 39.3 9.4 32.7 12.1 28c2.7-4.7 9.3-6.6 18.6-5.4  c1.3 0.2 2.7 0.4 4.1 0.7C38.2 12.7 43.8 6 50.2 6c1.6 0 3.2 0.4 4.7 1.3c-0.9 0.6-1.6 1.4-2.2 2.2C51.9 9.2 51 9 50.2 9  c-4.9 0-9.5 5.9-12.5 15c4 1 8.2 2.5 12.5 4.4c4.2-1.9 8.5-3.4 12.5-4.4c-0.3-0.8-0.6-1.7-0.9-2.5c1-0.3 1.9-0.8 2.7-1.4  c0.4 1 0.8 2.1 1.2 3.2c1.4-0.3 2.8-0.5 4.1-0.7c9.3-1.2 15.9 0.7 18.6 5.4c2.7 4.7 1.1 11.3-4.6 18.8C82.9 47.8 82 48.9 81 50z   M66.5 26.2c1.1 3.9 1.9 8.3 2.4 13c3.8 2.8 7.2 5.7 10.1 8.6c0.8-0.9 1.6-1.9 2.3-2.8c4.8-6.3 6.4-12 4.4-15.5  c-1.6-2.8-5.5-4.2-10.9-4.2c-1.4 0-3 0.1-4.7 0.3C68.9 25.7 67.7 25.9 66.5 26.2z M53.8 30.1c2 1 4 2.1 6 3.2c2 1.2 3.9 2.3 5.7 3.6  c-0.5-3.6-1.2-6.9-2-10C60.4 27.7 57.1 28.7 53.8 30.1z M66 40.8c-2.4-1.7-5-3.4-7.7-5c-2.7-1.6-5.4-3-8.1-4.2  c-2.7 1.2-5.4 2.7-8.1 4.2c-2.7 1.6-5.3 3.2-7.7 4.9c-0.3 3-0.4 6-0.4 9.2c0 3.1 0.2 6.2 0.4 9.2c2.4 1.7 5 3.4 7.7 4.9  c2.7 1.6 5.4 3 8.1 4.2c2.7-1.2 5.4-2.7 8.1-4.2c2.7-1.6 5.3-3.2 7.7-4.9c0.3-3 0.4-6 0.4-9.2C66.5 46.9 66.3 43.8 66 40.8z   M36.8 26.8c-0.9 3.1-1.5 6.4-2 10c1.8-1.2 3.8-2.4 5.7-3.6c2-1.1 4-2.2 6-3.2C43.2 28.7 40 27.6 36.8 26.8z M19.1 45  c0.7 0.9 1.5 1.9 2.3 2.8c2.9-3 6.3-5.9 10.1-8.6c0.5-4.7 1.3-9.1 2.4-13c-1.2-0.3-2.4-0.5-3.6-0.6c-1.7-0.2-3.2-0.3-4.7-0.3  c-5.4 0-9.3 1.5-10.9 4.2C12.6 33 14.2 38.6 19.1 45z M31.1 56.8c-0.1-2.2-0.2-4.5-0.2-6.8c0-2.3 0.1-4.6 0.2-6.8  c-2.8 2.2-5.4 4.5-7.7 6.8C25.7 52.3 28.3 54.6 31.1 56.8z M36.8 73.2c3.1-0.8 6.4-1.9 9.7-3.2c-2-1-4-2.1-6-3.2  c-2-1.1-3.9-2.3-5.7-3.6C35.3 66.7 36 70.1 36.8 73.2z M62.7 76c-4-1-8.2-2.5-12.5-4.4c-4.3 1.9-8.5 3.4-12.5 4.4  c3 9.1 7.5 15 12.5 15C55.1 91 59.6 85.1 62.7 76z M65.6 63.1c-1.8 1.2-3.8 2.4-5.7 3.6c-2 1.1-4 2.2-6 3.2c3.3 1.3 6.6 2.4 9.7 3.2  C64.4 70.1 65.1 66.7 65.6 63.1z M76.9 50c-2.2-2.3-4.8-4.6-7.7-6.8c0.1 2.2 0.2 4.5 0.2 6.8c0 2.3-0.1 4.6-0.2 6.8  C72.1 54.6 74.6 52.3 76.9 50z M13.8 63.7c2.7 0.4 5-1.9 4.6-4.6c-0.3-1.7-1.6-3.1-3.3-3.3c-2.7-0.4-5 1.9-4.6 4.6  C10.8 62.1 12.1 63.4 13.8 63.7z" transform="matrix(1, 0, 0, 1, 0, 0)" fill="#333747"/></g><path transform="matrix(0.16042780876159668, 0, 0, 0.16042780876159668, 117.3463363647461, 214.6293182373047)" data-type="circle" data-cx="50" data-cy="50" data-r="50" d="M50 50m-50 0a50 50 0 1 0 100 0a50 50 0 1 0 -100 0" fill="#40bf8e"/><path transform="matrix(0.08217416703701019, 0, 0, 0.08217416703701019, 172.4744415283203, 269.7574462890625)" fill="#40bf8e" data-type="circle" data-cx="50" data-cy="50" data-r="50" d="M50 50m-50 0a50 50 0 1 0 100 0a50 50 0 1 0 -100 0"/><path transform="matrix(0.11053751409053802, 0, 0, 0.11053751409053802, 138.0159454345703, 146.51744079589844)" fill="#40bf8e" data-type="circle" data-cx="50" data-cy="50" data-r="50" d="M50 50m-50 0a50 50 0 1 0 100 0a50 50 0 1 0 -100 0"/><path transform="matrix(0.06109251454472542, 0, 0, 0.06109251454472542, 52.60169982910156, 238.7217559814453)" fill="#40bf8e" data-type="circle" data-cx="50" data-cy="50" data-r="50" d="M50 50m-50 0a50 50 0 1 0 100 0a50 50 0 1 0 -100 0"/></g><path text="Blog" fill="#333747" space="preserve" text-anchor="start" offset="0" font-scale="contain" font-size="48" font-family="Exo" transform="matrix(1.2622667597267283, 0, 0, 1.2622667597267283, 199.10068920867826, 306.4239915978018)" data-fl-textpath="" font-weight="700" font-style="normal" d="M 17.66 0L 3.07 0L 3.07-35.52L 17.04-35.52Q 22.32-35.52  24.74-33.1Q 27.17-30.67  27.17-26.21L 27.17-26.21Q 27.17-24.1  26.57-22.49Q 25.97-20.88  24.86-19.85Q 23.76-18.82  22.22-18.43L 22.22-18.43Q 23.38-18.14  24.46-17.52Q 25.54-16.9  26.42-15.84Q 27.31-14.78  27.82-13.27Q 28.32-11.76  28.32-9.79L 28.32-9.79Q 28.32-6.19  27.1-4.03Q 25.87-1.87  23.5-0.94Q 21.12 0  17.66 0L 17.66 0ZM 10.18-15.41L 10.18-6.38L 17.47-6.38Q 18.72-6.38  19.63-6.86Q 20.54-7.34  21.05-8.35Q 21.55-9.36  21.55-11.04L 21.55-11.04Q 21.55-12.43  21.02-13.39Q 20.5-14.35  19.58-14.88Q 18.67-15.41  17.47-15.41L 17.47-15.41L 10.18-15.41ZM 10.18-29.14L 10.18-20.88L 17.09-20.88Q 18.62-20.88  19.51-22.01Q 20.4-23.14  20.4-24.96L 20.4-24.96Q 20.45-27.31  19.44-28.22Q 18.43-29.14  16.99-29.14L 16.99-29.14L 10.18-29.14ZM 44.596000000000004 0.1L 40.896 0.1Q 38.156000000000006 0.1  36.356-0.79Q 34.556000000000004-1.68  33.696000000000005-3.53Q 32.836000000000006-5.38  32.836000000000006-8.3L 32.836000000000006-8.3L 32.836000000000006-36.62L 39.93600000000001-36.62L 39.93600000000001-9.36Q 39.93600000000001-7.92  40.226000000000006-7.08Q 40.516000000000005-6.24  41.116-5.86Q 41.716-5.47  42.626000000000005-5.33L 42.626000000000005-5.33L 44.596000000000004-5.04L 44.596000000000004 0.1ZM 58.900000000000006 0.24L 58.900000000000006 0.24Q 55.730000000000004 0.24  53.470000000000006-0.41Q 51.220000000000006-1.06  49.800000000000004-2.59Q 48.38-4.13  47.74-6.67Q 47.09-9.22  47.09-12.96L 47.09-12.96Q 47.09-16.9  47.74-19.46Q 48.38-22.03  49.800000000000004-23.5Q 51.220000000000006-24.96  53.50000000000001-25.56Q 55.78-26.16  58.900000000000006-26.16L 58.900000000000006-26.16Q 62.11-26.16  64.37-25.54Q 66.62-24.91  68.04-23.45Q 69.46000000000001-21.98  70.10000000000001-19.42Q 70.75-16.85  70.75-12.96L 70.75-12.96Q 70.75-9.12  70.13000000000001-6.55Q 69.5-3.98  68.11-2.5Q 66.72-1.01  64.44-0.38Q 62.160000000000004 0.24  58.900000000000006 0.24ZM 58.900000000000006-5.42L 58.900000000000006-5.42Q 60.190000000000005-5.42  61.080000000000005-5.66Q 61.970000000000006-5.9  62.52-6.65Q 63.07000000000001-7.39  63.36-8.93Q 63.650000000000006-10.46  63.650000000000006-12.96L 63.650000000000006-12.96Q 63.650000000000006-15.5  63.36-17.02Q 63.07000000000001-18.53  62.52-19.27Q 61.970000000000006-20.02  61.080000000000005-20.26Q 60.190000000000005-20.5  58.900000000000006-20.5L 58.900000000000006-20.5Q 57.650000000000006-20.5  56.760000000000005-20.26Q 55.870000000000005-20.02  55.300000000000004-19.27Q 54.720000000000006-18.53  54.46000000000001-17.02Q 54.190000000000005-15.5  54.190000000000005-12.96L 54.190000000000005-12.96Q 54.190000000000005-10.46  54.46000000000001-8.93Q 54.720000000000006-7.39  55.300000000000004-6.65Q 55.870000000000005-5.9  56.760000000000005-5.66Q 57.650000000000006-5.42  58.900000000000006-5.42ZM 89.86 11.9L 82.13 11.9Q 79.67999999999999 11.9  77.78 11.18Q 75.89 10.46  74.78 9.1Q 73.67999999999999 7.73  73.67999999999999 5.71L 73.67999999999999 5.71L 73.67999999999999 4.94Q 73.67999999999999 2.88  74.86 1.42Q 76.03-0.05  77.9-0.82Q 79.78-1.58  81.89-1.58L 81.89-1.58L 84 0.62Q 82.94 0.62  82.13 0.96Q 81.31 1.3  80.86 1.94Q 80.4 2.59  80.4 3.55L 80.4 3.55L 80.4 4.08Q 80.4 5.47  81.36 6.19Q 82.32 6.91  84.1 6.91L 84.1 6.91L 88.99 6.91Q 90.77 6.91  91.85 6.22Q 92.93 5.52  92.93 4.13L 92.93 4.13L 92.93 3.36Q 92.93 2.5  92.52 1.9Q 92.11 1.3  91.32 0.96Q 90.53 0.62  89.18 0.62L 89.18 0.62L 83.47 0.62Q 79.15 0.62  77.06-0.98Q 74.98-2.59  74.98-4.94L 74.98-4.94Q 74.98-6.91  76.1-8.23Q 77.23-9.55  79.25-9.98L 79.25-9.98Q 77.71-10.8  76.8-11.98Q 75.89-13.15  75.5-14.52Q 75.12-15.89  75.12-17.38L 75.12-17.38Q 75.12-20.21  76.3-22.08Q 77.47-23.95  79.85-24.86Q 82.22-25.78  85.82-25.78L 85.82-25.78L 99.78999999999999-25.78L 99.78999999999999-21.89L 95.86-21.17Q 96.28999999999999-20.69  96.72-20.04Q 97.15-19.39  97.46-18.36Q 97.78-17.33  97.78-15.79L 97.78-15.79Q 97.78-13.58  96.84-11.81Q 95.9-10.03  93.86-8.98Q 91.82-7.92  88.46-7.92L 88.46-7.92L 83.9-7.92Q 82.61-7.92  81.78999999999999-7.54Q 80.98-7.15  80.98-6.14L 80.98-6.14Q 80.98-5.33  81.67-5.02Q 82.37-4.7  83.23-4.7L 83.23-4.7L 90.34-4.7Q 93.31-4.7  95.38-3.94Q 97.44-3.17  98.53999999999999-1.46Q 99.65 0.24  99.65 3.02L 99.65 3.02L 99.65 3.74Q 99.65 7.54  97.25 9.72Q 94.85 11.9  89.86 11.9L 89.86 11.9ZM 84.91-13.25L 84.91-13.25L 87.65-13.25Q 89.14-13.25  89.93-13.7Q 90.72-14.16  91.03-14.95Q 91.34-15.74  91.34-16.8L 91.34-16.8Q 91.34-18.14  90.94-18.96Q 90.53-19.78  89.75999999999999-20.11Q 88.99-20.45  87.84-20.45L 87.84-20.45L 85.15-20.45Q 83.33-20.45  82.42-19.66Q 81.5-18.86  81.5-16.9L 81.5-16.9Q 81.5-15.02  82.37-14.14Q 83.23-13.25  84.91-13.25Z"/></svg>